<svg width="24" height="25" viewBox="0 0 24 25" fill="none" xmlns="http://www.w3.org/2000/svg">
									<g clip-path="url(#clip0_134_64)">
									<path d="M23.5612 21.9454L18.916 17.2983C22.3918 12.6535 21.444 6.07052 16.7993 2.5948C12.1545 -0.88092 5.5715 0.0667952 2.09578 4.71157C-1.37994 9.35634 -0.432228 15.9393 4.21255 19.4151C7.94361 22.2071 13.0682 22.2071 16.7993 19.4151L21.4464 24.0622C22.0304 24.6462 22.9772 24.6462 23.5611 24.0622C24.1451 23.4782 24.1451 22.5314 23.5611 21.9474L23.5612 21.9454ZM10.5446 18.5181C6.41658 18.5181 3.07017 15.1717 3.07017 11.0437C3.07017 6.9156 6.41658 3.56919 10.5446 3.56919C14.6727 3.56919 18.0191 6.9156 18.0191 11.0437C18.0147 15.1698 14.6709 18.5137 10.5446 18.5181Z" fill="currentColor" fill-opacity="0.7"></path>
									</g>
									<defs>
									<clipPath id="clip0_134_64">
									<rect width="24" height="24" fill="currentColor" transform="translate(0 0.5)"></rect>
									</clipPath>
									</defs>
								</svg>